<svg width="185" height="55" viewBox="0 0 185 55" fill="none" xmlns="http://www.w3.org/2000/svg">
<path d="M22.7073 39.256C22.4513 39.256 22.1633 39.224 21.8433 39.16C21.5233 39.096 21.2033 38.936 20.8833 38.68L2.54731 26.2C1.45931 25.496 0.915313 24.504 0.915313 23.224C0.915313 22.072 1.45931 21.112 2.54731 20.344L20.9793 7.864C21.6193 7.416 22.2273 7.192 22.8033 7.192C23.5713 7.192 24.1793 7.48 24.6273 8.056C25.1393 8.632 25.3953 9.272 25.3953 9.976C25.3953 10.872 24.9793 11.608 24.1473 12.184L8.40331 22.552C8.01931 22.808 7.82731 23.064 7.82731 23.32C7.82731 23.512 8.01931 23.768 8.40331 24.088L24.1473 34.456C24.9153 34.968 25.2993 35.672 25.2993 36.568C25.2993 37.208 25.0433 37.816 24.5313 38.392C24.0833 38.968 23.4753 39.256 22.7073 39.256ZM79.6788 52.216C79.2308 53.432 78.5268 54.04 77.5668 54.04C76.7348 54.04 76.0948 53.688 75.6468 52.984C75.1988 52.344 75.1028 51.64 75.3588 50.872L91.8708 1.912C92.2548 0.823997 92.9588 0.279998 93.9828 0.279998C94.8148 0.279998 95.4548 0.599998 95.9028 1.24C96.4148 1.88 96.5428 2.584 96.2868 3.352L79.6788 52.216ZM162.255 39.256C161.487 39.256 160.847 38.968 160.335 38.392C159.887 37.816 159.663 37.208 159.663 36.568C159.663 35.672 160.047 34.968 160.815 34.456L176.559 24.088C176.943 23.768 177.135 23.512 177.135 23.32C177.135 23.064 176.943 22.808 176.559 22.552L160.815 12.184C159.983 11.608 159.567 10.872 159.567 9.976C159.567 9.272 159.791 8.632 160.239 8.056C160.751 7.48 161.391 7.192 162.159 7.192C162.735 7.192 163.343 7.416 163.983 7.864L182.415 20.344C183.503 21.112 184.047 22.072 184.047 23.224C184.047 24.504 183.503 25.496 182.415 26.2L164.079 38.68C163.759 38.936 163.439 39.096 163.119 39.16C162.863 39.224 162.575 39.256 162.255 39.256Z" fill="#808080"/>
<path d="M42.5208 43C41.1768 43 39.8968 42.552 38.6808 41.656C37.5288 40.76 36.9528 39.48 36.9528 37.816V9.592C36.9528 8.12 37.4328 6.936 38.3928 6.04C39.4168 5.08 40.6008 4.6 41.9448 4.6H50.5848C54.4248 4.6 57.7848 5.4 60.6648 7C63.6088 8.536 65.8808 10.744 67.4808 13.624C69.1448 16.504 69.9768 19.96 69.9768 23.992C69.9768 27.512 69.2088 30.712 67.6728 33.592C66.2008 36.472 64.1208 38.776 61.4328 40.504C58.8088 42.168 55.7688 43 52.3128 43H42.5208ZM46.4568 37.048H50.6808C54.8408 37.048 58.0088 35.96 60.1848 33.784C62.3608 31.544 63.4168 28.28 63.3528 23.992C63.2888 19.64 62.1688 16.312 59.9928 14.008C57.8168 11.704 54.6808 10.552 50.5848 10.552H46.5528C44.6328 10.552 43.6728 11.512 43.6728 13.432V34.168C43.6728 36.088 44.6008 37.048 46.4568 37.048ZM115.932 43.96C114.78 43.96 113.756 43.608 112.86 42.904C112.028 42.136 111.484 41.176 111.228 40.024L104.892 7.48C104.828 6.392 105.148 5.56 105.852 4.984C106.556 4.408 107.356 4.12 108.252 4.12C108.956 4.12 109.628 4.344 110.268 4.792C110.972 5.24 111.388 5.944 111.516 6.904L116.028 32.728C116.156 33.432 116.412 33.784 116.796 33.784C117.116 33.784 117.372 33.464 117.564 32.824L123.324 11.128C123.644 10.104 124.22 9.368 125.052 8.92C125.884 8.408 126.684 8.152 127.452 8.152C128.22 8.152 129.02 8.408 129.852 8.92C130.748 9.368 131.324 10.104 131.58 11.128L137.34 32.824C137.532 33.464 137.788 33.784 138.108 33.784C138.492 33.784 138.748 33.432 138.876 32.728L143.388 6.904C143.58 5.944 143.996 5.24 144.636 4.792C145.276 4.344 145.948 4.12 146.652 4.12C147.548 4.12 148.348 4.408 149.052 4.984C149.82 5.56 150.14 6.392 150.012 7.48L143.58 40.024C143.324 41.176 142.748 42.136 141.852 42.904C141.02 43.608 140.028 43.96 138.876 43.96C136.572 43.96 134.94 42.712 133.98 40.216L128.316 19.864C128.124 19.16 127.836 18.808 127.452 18.808C127.068 18.808 126.78 19.16 126.588 19.864L120.828 40.216C119.868 42.712 118.236 43.96 115.932 43.96Z" fill="black"/>
</svg>
