<svg width="189" height="55" viewBox="0 0 189 55" fill="none" xmlns="http://www.w3.org/2000/svg">
<path d="M28.5511 42.256C28.2951 42.256 28.0071 42.224 27.6871 42.16C27.3671 42.096 27.0471 41.936 26.7271 41.68L8.39106 29.2C7.30306 28.496 6.75906 27.504 6.75906 26.224C6.75906 25.072 7.30306 24.112 8.39106 23.344L26.8231 10.864C27.4631 10.416 28.0711 10.192 28.6471 10.192C29.4151 10.192 30.0231 10.48 30.4711 11.056C30.9831 11.632 31.2391 12.272 31.2391 12.976C31.2391 13.872 30.8231 14.608 29.9911 15.184L14.2471 25.552C13.8631 25.808 13.6711 26.064 13.6711 26.32C13.6711 26.512 13.8631 26.768 14.2471 27.088L29.9911 37.456C30.7591 37.968 31.1431 38.672 31.1431 39.568C31.1431 40.208 30.8871 40.816 30.3751 41.392C29.9271 41.968 29.3191 42.256 28.5511 42.256ZM160.411 42.256C159.643 42.256 159.003 41.968 158.491 41.392C158.043 40.816 157.819 40.208 157.819 39.568C157.819 38.672 158.203 37.968 158.971 37.456L174.715 27.088C175.099 26.768 175.291 26.512 175.291 26.32C175.291 26.064 175.099 25.808 174.715 25.552L158.971 15.184C158.139 14.608 157.723 13.872 157.723 12.976C157.723 12.272 157.947 11.632 158.395 11.056C158.907 10.48 159.547 10.192 160.315 10.192C160.891 10.192 161.499 10.416 162.139 10.864L180.571 23.344C181.659 24.112 182.203 25.072 182.203 26.224C182.203 27.504 181.659 28.496 180.571 29.2L162.235 41.68C161.915 41.936 161.595 42.096 161.275 42.16C161.019 42.224 160.731 42.256 160.411 42.256Z" fill="#808080"/>
<path d="M48.3646 46C47.0206 46 45.7406 45.552 44.5246 44.656C43.3726 43.76 42.7966 42.48 42.7966 40.816V12.592C42.7966 11.12 43.2766 9.936 44.2366 9.04C45.2606 8.08 46.4446 7.6 47.7886 7.6H56.4286C60.2686 7.6 63.6286 8.4 66.5086 10C69.4526 11.536 71.7246 13.744 73.3246 16.624C74.9886 19.504 75.8206 22.96 75.8206 26.992C75.8206 30.512 75.0526 33.712 73.5166 36.592C72.0446 39.472 69.9646 41.776 67.2766 43.504C64.6526 45.168 61.6126 46 58.1566 46H48.3646ZM52.3006 40.048H56.5246C60.6846 40.048 63.8526 38.96 66.0286 36.784C68.2046 34.544 69.2606 31.28 69.1966 26.992C69.1326 22.64 68.0126 19.312 65.8366 17.008C63.6606 14.704 60.5246 13.552 56.4286 13.552H52.3966C50.4766 13.552 49.5166 14.512 49.5166 16.432V37.168C49.5166 39.088 50.4446 40.048 52.3006 40.048ZM114.088 46.96C112.936 46.96 111.912 46.608 111.016 45.904C110.184 45.136 109.64 44.176 109.384 43.024L103.048 10.48C102.984 9.392 103.304 8.56 104.008 7.984C104.712 7.408 105.512 7.12 106.408 7.12C107.112 7.12 107.784 7.344 108.424 7.792C109.128 8.24 109.544 8.944 109.672 9.904L114.184 35.728C114.312 36.432 114.568 36.784 114.952 36.784C115.272 36.784 115.528 36.464 115.72 35.824L121.48 14.128C121.8 13.104 122.376 12.368 123.208 11.92C124.04 11.408 124.84 11.152 125.608 11.152C126.376 11.152 127.176 11.408 128.008 11.92C128.904 12.368 129.48 13.104 129.736 14.128L135.496 35.824C135.688 36.464 135.944 36.784 136.264 36.784C136.648 36.784 136.904 36.432 137.032 35.728L141.544 9.904C141.736 8.944 142.152 8.24 142.792 7.792C143.432 7.344 144.104 7.12 144.808 7.12C145.704 7.12 146.504 7.408 147.208 7.984C147.976 8.56 148.296 9.392 148.168 10.48L141.736 43.024C141.48 44.176 140.904 45.136 140.008 45.904C139.176 46.608 138.184 46.96 137.032 46.96C134.728 46.96 133.096 45.712 132.136 43.216L126.472 22.864C126.28 22.16 125.992 21.808 125.608 21.808C125.224 21.808 124.936 22.16 124.744 22.864L118.984 43.216C118.024 45.712 116.392 46.96 114.088 46.96Z" fill="white"/>
<path d="M82.4929 52.3993C82.0449 53.6153 81.3409 54.2233 80.3809 54.2233C79.5489 54.2233 78.9089 53.8713 78.4609 53.1673C78.0129 52.5273 77.9169 51.8233 78.1729 51.0553L94.6849 2.09532C95.0689 1.00732 95.7729 0.463317 96.7969 0.463317C97.6289 0.463317 98.2689 0.783317 98.7169 1.42332C99.2289 2.06332 99.3569 2.76732 99.1009 3.53532L82.4929 52.3993Z" fill="#808080"/>
</svg>
